<?xml version="1.0" encoding="utf-8"?>
<!-- Generator: Adobe Illustrator 16.0.0, SVG Export Plug-In . SVG Version: 6.00 Build 0)  -->
<!DOCTYPE svg PUBLIC "-//W3C//DTD SVG 1.1//EN" "http://www.w3.org/Graphics/SVG/1.1/DTD/svg11.dtd">
<svg version="1.1" xmlns="http://www.w3.org/2000/svg" xmlns:xlink="http://www.w3.org/1999/xlink" x="0px" y="0px"
	 width="262.078px" height="174px" viewBox="0 0 262.078 174" enable-background="new 0 0 262.078 174" xml:space="preserve">
<g id="Twitter">
	<g>
		<path fill="#6CCEF4" d="M46.614,11.587l-18.62-10.75c-1.934-1.116-4.316-1.116-6.25,0l-18.62,10.75C1.191,12.704,0,14.767,0,17
			v21.5c0,2.233,1.191,4.297,3.125,5.413l18.62,10.75c0.967,0.558,2.046,0.837,3.125,0.837s2.158-0.279,3.125-0.837l18.62-10.75
			c1.934-1.116,3.125-3.18,3.125-5.413V17C49.739,14.767,48.548,12.704,46.614,11.587z"/>
		<path fill="#FFFFFF" d="M37.304,20.11c-0.905,0.402-1.88,0.674-2.902,0.795c1.044-0.625,1.845-1.615,2.222-2.796
			c-0.977,0.58-2.058,1-3.209,1.227c-0.921-0.982-2.235-1.596-3.688-1.596c-2.791,0-5.053,2.263-5.053,5.054
			c0,0.396,0.044,0.781,0.131,1.151c-4.2-0.21-7.924-2.222-10.417-5.28c-0.435,0.746-0.684,1.614-0.684,2.541
			c0,1.753,0.892,3.3,2.248,4.206c-0.828-0.026-1.607-0.253-2.289-0.632c0,0.021,0,0.042,0,0.063c0,2.448,1.742,4.491,4.054,4.955
			c-0.424,0.115-0.871,0.178-1.332,0.178c-0.326,0-0.642-0.032-0.951-0.091c0.643,2.007,2.509,3.469,4.72,3.509
			c-1.729,1.355-3.908,2.164-6.276,2.164c-0.408,0-0.81-0.024-1.206-0.071c2.237,1.434,4.893,2.271,7.747,2.271
			c9.295,0,14.378-7.701,14.378-14.378c0-0.219-0.004-0.438-0.014-0.654C35.77,22.014,36.627,21.124,37.304,20.11z"/>
		<path opacity="0.03" d="M45.115,14.185l-18.62-10.75C26.001,3.151,25.439,3,24.87,3v49.5c0.569,0,1.132-0.15,1.625-0.436
			l18.62-10.75c1.002-0.578,1.625-1.656,1.625-2.814V17C46.739,15.842,46.117,14.764,45.115,14.185z"/>
	</g>
</g>
<g id="facebook">
	<g>
		<path fill="#4A6EB4" d="M99.757,11.587l-18.62-10.75c-1.934-1.116-4.316-1.116-6.25,0l-18.619,10.75
			c-1.934,1.116-3.125,3.18-3.125,5.412v21.5c0,2.233,1.191,4.297,3.125,5.413l18.619,10.75c0.967,0.558,2.046,0.837,3.125,0.837
			s2.158-0.279,3.125-0.837l18.62-10.75c1.934-1.116,3.125-3.18,3.125-5.413V17C102.882,14.767,101.691,12.704,99.757,11.587z"/>
		<path fill="#FFFFFF" d="M83.876,23.426h-3.822v-2.507c0-0.941,0.624-1.161,1.063-1.161c0.438,0,2.697,0,2.697,0v-4.139
			L80.1,15.604c-4.124,0-5.063,3.087-5.063,5.063v2.759h-2.385v4.265h2.385c0,5.474,0,12.068,0,12.068h5.017c0,0,0-6.66,0-12.068
			h3.385L83.876,23.426z"/>
		<path opacity="0.05" d="M98.257,14.185l-18.62-10.75C79.144,3.151,78.583,3,78.012,3v49.5c0.569,0,1.132-0.15,1.625-0.436
			l18.62-10.75c1.002-0.578,1.625-1.656,1.625-2.814V17C99.882,15.842,99.259,14.764,98.257,14.185z"/>
	</g>
</g>
<g id="Dribbble">
	<g>
		<path fill="#EF6897" d="M153.257,11.587l-18.62-10.75c-1.934-1.116-4.316-1.116-6.25,0l-18.619,10.75
			c-1.934,1.116-3.125,3.18-3.125,5.412v21.5c0,2.233,1.191,4.297,3.125,5.413l18.619,10.75c0.967,0.558,2.046,0.837,3.125,0.837
			s2.158-0.279,3.125-0.837l18.62-10.75c1.934-1.116,3.125-3.18,3.125-5.413V17C156.382,14.767,155.191,12.704,153.257,11.587z"/>
		<path id="_x3C_Path_x3E__15_" fill="#FFFFFF" d="M140.802,19.321c-0.384-0.447-0.8-0.866-1.243-1.254
			c-2.173-1.899-5.016-3.053-8.128-3.053c-1.351,0-2.648,0.22-3.864,0.62c-0.601,0.198-1.181,0.44-1.736,0.723
			c-3.317,1.689-5.771,4.83-6.521,8.588c-0.112,0.566-0.187,1.146-0.219,1.736c-0.014,0.229-0.021,0.461-0.021,0.693
			c0,3.701,1.629,7.02,4.206,9.285c0.482,0.424,0.998,0.811,1.543,1.156c1.912,1.213,4.179,1.919,6.612,1.919
			c1.592,0,3.113-0.305,4.511-0.853c0.569-0.223,1.117-0.487,1.642-0.789c3.109-1.789,5.364-4.889,6.014-8.547
			c0.102-0.576,0.164-1.165,0.184-1.766c0.004-0.135,0.01-0.27,0.01-0.406C143.791,24.297,142.664,21.484,140.802,19.321z
			 M131.431,16.764c2.683,0,5.129,1.009,6.999,2.657c-1.491,1.554-3.456,2.846-5.775,3.803c-1.167-2.261-2.47-4.314-3.868-6.113
			C129.634,16.893,130.516,16.764,131.431,16.764z M127.017,17.739c1.429,1.771,2.769,3.821,3.966,6.099
			c-2.542,0.819-5.426,1.27-8.521,1.27c-0.459,0-0.921-0.01-1.384-0.03C121.804,21.807,124.041,19.107,127.017,17.739z
			 M123.858,34.792c-1.876-1.914-3.038-4.532-3.038-7.418c0-0.188,0.02-0.373,0.029-0.56c0.539,0.026,1.077,0.042,1.612,0.042
			c3.379,0,6.529-0.511,9.307-1.442c0.307,0.644,0.603,1.303,0.886,1.977c-3.01,0.774-5.498,2.342-7.221,4.603
			C124.773,32.86,124.253,33.799,123.858,34.792z M131.431,37.985c-2.298,0-4.42-0.741-6.159-1.987
			c0.358-1.056,0.869-2.046,1.553-2.943c1.519-1.993,3.756-3.366,6.484-4.023c0.624,1.65,1.178,3.373,1.643,5.155
			c0.256,0.983,0.479,1.96,0.673,2.931C134.337,37.673,132.919,37.985,131.431,37.985z M137.228,36.25
			c-0.174-0.831-0.364-1.665-0.583-2.504c-0.453-1.737-0.982-3.416-1.576-5.026c0.696-0.085,1.415-0.132,2.159-0.132
			c1.513,0,3.077,0.184,4.657,0.527C141.391,32.094,139.66,34.657,137.228,36.25z M137.228,26.837c-0.973,0-1.912,0.068-2.814,0.201
			c-0.313-0.767-0.643-1.518-0.985-2.249c2.474-1.04,4.584-2.44,6.216-4.122c1.494,1.826,2.393,4.156,2.396,6.693
			C140.41,27.02,138.794,26.837,137.228,26.837z"/>
		<path opacity="0.05" d="M151.757,14.185l-18.62-10.75C132.644,3.151,132.083,3,131.512,3v49.5c0.569,0,1.132-0.15,1.625-0.436
			l18.62-10.75c1.002-0.578,1.625-1.656,1.625-2.814V17C153.382,15.842,152.759,14.764,151.757,14.185z"/>
	</g>
</g>
<g id="Pinterest">
	<g>
		<path fill="#EE4546" d="M205.757,11.587l-18.62-10.75c-1.934-1.116-4.316-1.116-6.25,0l-18.619,10.75
			c-1.935,1.116-3.125,3.18-3.125,5.412v21.5c0,2.233,1.19,4.297,3.125,5.413l18.619,10.75c0.967,0.558,2.046,0.837,3.125,0.837
			s2.158-0.279,3.125-0.837l18.62-10.75c1.934-1.116,3.125-3.18,3.125-5.413V17C208.882,14.767,207.691,12.704,205.757,11.587z"/>
		<path fill="#FFFFFF" d="M184.596,15.241c-6.793,0-10.218,4.87-10.218,8.932c0,2.459,0.931,4.646,2.928,5.462
			c0.327,0.134,0.62,0.005,0.715-0.357c0.066-0.251,0.223-0.884,0.293-1.148c0.096-0.357,0.059-0.483-0.206-0.796
			c-0.575-0.679-0.944-1.559-0.944-2.805c0-3.612,2.704-6.847,7.04-6.847c3.839,0,5.949,2.346,5.949,5.479
			c0,4.122-1.825,7.603-4.533,7.603c-1.495,0-2.615-1.237-2.257-2.755c0.43-1.811,1.263-3.766,1.263-5.073
			c0-1.17-0.628-2.146-1.929-2.146c-1.528,0-2.757,1.582-2.757,3.701c0,1.35,0.456,2.263,0.456,2.263s-1.564,6.629-1.84,7.791
			c-0.546,2.313-0.082,5.146-0.042,5.433c0.022,0.17,0.241,0.21,0.34,0.082c0.141-0.184,1.962-2.433,2.581-4.679
			c0.176-0.637,1.006-3.931,1.006-3.931c0.496,0.948,1.948,1.782,3.492,1.782c4.596,0,7.715-4.189,7.715-9.798
			C193.648,19.191,190.055,15.241,184.596,15.241z"/>
		<path opacity="0.05" d="M204.257,14.185l-18.62-10.75C185.144,3.151,184.583,3,184.012,3v49.5c0.569,0,1.132-0.15,1.625-0.436
			l18.62-10.75c1.002-0.578,1.625-1.656,1.625-2.814V17C205.882,15.842,205.259,14.764,204.257,14.185z"/>
	</g>
</g>
<g id="deviantART">
	<g>
		<path fill="#536859" d="M259.257,11.587l-18.621-10.75c-1.934-1.116-4.316-1.116-6.25,0l-18.619,10.75
			c-1.934,1.116-3.125,3.18-3.125,5.412v21.5c0,2.233,1.191,4.297,3.125,5.413l18.619,10.75c0.967,0.558,2.047,0.837,3.125,0.837
			c1.08,0,2.158-0.279,3.125-0.837l18.621-10.75c1.934-1.116,3.125-3.18,3.125-5.413V17
			C262.382,14.767,261.191,12.704,259.257,11.587z"/>
		<path id="_x3C_Path_x3E__14_" fill="#C8D92F" d="M234.289,21.568c-0.1,0.015-0.188,0.04-0.286,0.056l-1.642-3.355l-4.869,0.556
			l1.984,4.084c-10.268,4.265-5.719,14.32-5.719,14.32l15.666-4.535l-4.305-8.79c7.727-2.233,14.178,2.333,14.178,2.333
			l-5.318,1.444l-1.531-2.861c-1.439-0.268-3.08-0.351-4.828-0.058l3.621,7.402l15.643-4.533
			C256.882,27.632,251.209,18.67,234.289,21.568z M227.997,32.021c0,0-1.51-3.353,2.883-6.224l2.337,4.809L227.997,32.021z"/>
		<path opacity="0.05" d="M257.757,14.185l-18.621-10.75C238.644,3.151,238.082,3,237.511,3v49.5c0.57,0,1.133-0.15,1.625-0.436
			l18.621-10.75c1.002-0.578,1.625-1.656,1.625-2.814V17C259.382,15.842,258.759,14.764,257.757,14.185z"/>
	</g>
</g>
<g id="Zerply">
	<g>
		<path fill="#98B76C" d="M46.614,70.587l-18.62-10.75c-1.934-1.116-4.316-1.116-6.25,0l-18.62,10.75C1.191,71.704,0,73.767,0,76
			v21.5c0,2.233,1.191,4.297,3.125,5.413l18.62,10.75c0.967,0.558,2.046,0.837,3.125,0.837s2.158-0.279,3.125-0.837l18.62-10.75
			c1.934-1.116,3.125-3.18,3.125-5.413V76C49.739,73.767,48.548,71.704,46.614,70.587z"/>
		<path id="_x3C_Path_x3E__5_" fill="#FFFFFF" d="M15.233,94.151c0.283,0,0.566,0,0.849,0c2.107,0,3.904,0.055,5.851,1.013
			c1.496,0.736,2.732,1.913,4.189,2.731c1.382,0.775,2.958,1.59,4.577,1.773c3.257,0.367,4.565-3.396,4.024-5.836
			c-1.451,1.118-3.475,1.09-5.33,0.603c-1.745-0.556-4.522-2.284-4.522-2.284v0.001c-1.246-0.743-2.709-1.358-4.178-1.296
			c0-0.633,0.019-0.657,0.422-1.104c0.555-0.614,1.11-1.229,1.665-1.843c1.746-1.936,3.492-3.869,5.237-5.803
			c1.486-1.646,2.971-3.291,4.457-4.937c0.143-0.157,0.666-0.562,0.692-0.779c0.091-0.747,0.181-1.494,0.271-2.242
			c0.063-0.518-0.5-0.394-0.5-0.394l-0.001-0.003c-2.408,0.469-4.885,0.713-7.34,0.605c-1.366-0.06-2.804-0.185-4.087-0.672
			c-0.046-0.018-0.318-0.15-0.572-0.284c-0.37-0.182-0.617-0.063-0.748,0.042c-0.104,0.123-0.214,0.242-0.312,0.369
			c-0.646,0.843-1.246,1.832-1.355,2.889c-0.025,0.235-0.056,0.733,0.08,1.031L18.6,77.733c0,0,0.016,0.036,0.056,0.095
			c0.007,0.009,0.013,0.02,0.02,0.027c0.308,0.406,1.723,1.627,7.25,0.568c-3.597,4.057-7.193,8.113-10.789,12.171
			c-0.001,0-0.001,0-0.001,0c-0.2,0.227-0.233,0.596-0.233,0.596c0,0.72,0,1.439,0,2.16c0,0.024-0.002,0.184-0.002,0.354
			C14.968,94.066,15.137,94.139,15.233,94.151z"/>
		<path opacity="0.05" d="M45.115,73.185l-18.62-10.75C26.001,62.151,25.439,62,24.87,62v49.5c0.569,0,1.132-0.15,1.625-0.436
			l18.62-10.75c1.002-0.578,1.625-1.656,1.625-2.814V76C46.739,74.842,46.117,73.764,45.115,73.185z"/>
	</g>
</g>
<g id="RSS">
	<g>
		<path fill="#F5A12A" d="M99.757,70.587l-18.62-10.75c-1.934-1.116-4.316-1.116-6.25,0l-18.619,10.75
			c-1.934,1.116-3.125,3.18-3.125,5.412v21.5c0,2.233,1.191,4.297,3.125,5.413l18.619,10.75c0.967,0.558,2.046,0.837,3.125,0.837
			s2.158-0.279,3.125-0.837l18.62-10.75c1.934-1.116,3.125-3.18,3.125-5.413V76C102.882,73.767,101.691,71.704,99.757,70.587z"/>
		<path id="_x3C_Path_x3E__1_" fill="#FFFFFF" d="M66.837,87.169c2.875,0,5.578,1.123,7.609,3.166
			c2.035,2.043,3.155,4.764,3.155,7.66h4.431c0-8.413-6.816-15.257-15.195-15.257V87.169z M66.844,79.315
			c10.247,0,18.583,8.383,18.583,18.686h4.431c0-12.747-10.324-23.116-23.014-23.116V79.315z M72.971,94.906
			c0,1.694-1.375,3.069-3.069,3.069s-3.068-1.375-3.068-3.069c0-1.695,1.374-3.069,3.068-3.069S72.971,93.21,72.971,94.906z"/>
		<path opacity="0.05" d="M98.257,73.185l-18.62-10.75C79.144,62.151,78.583,62,78.012,62v49.5c0.569,0,1.132-0.15,1.625-0.436
			l18.62-10.75c1.002-0.578,1.625-1.656,1.625-2.814V76C99.882,74.842,99.259,73.764,98.257,73.185z"/>
	</g>
</g>
<g id="Google_x2B_">
	<g>
		<path fill="#393A39" d="M153.257,70.587l-18.62-10.75c-1.934-1.116-4.316-1.116-6.25,0l-18.619,10.75
			c-1.934,1.116-3.125,3.18-3.125,5.412v21.5c0,2.233,1.191,4.297,3.125,5.413l18.619,10.75c0.967,0.558,2.046,0.837,3.125,0.837
			s2.158-0.279,3.125-0.837l18.62-10.75c1.934-1.116,3.125-3.18,3.125-5.413V76C156.382,73.767,155.191,71.704,153.257,70.587z"/>
	</g>
	<path fill="#FFFFFF" d="M129.506,76.959c0.165,0.129,0.357,0.299,0.579,0.51c0.22,0.212,0.431,0.47,0.633,0.773
		c0.203,0.304,0.377,0.658,0.524,1.063c0.147,0.405,0.221,0.865,0.221,1.381c0,0.515-0.064,0.966-0.192,1.353
		c-0.129,0.387-0.305,0.731-0.524,1.035c-0.221,0.304-0.469,0.579-0.745,0.828c-0.275,0.248-0.561,0.482-0.854,0.703
		c-0.185,0.185-0.359,0.378-0.524,0.58s-0.249,0.461-0.249,0.773s0.084,0.557,0.249,0.731s0.321,0.327,0.469,0.456l0.993,0.772
		c0.293,0.258,0.582,0.516,0.867,0.773c0.285,0.257,0.533,0.533,0.744,0.828c0.212,0.294,0.383,0.626,0.512,0.993
		c0.127,0.368,0.191,0.791,0.191,1.27c0,0.645-0.156,1.279-0.468,1.905c-0.313,0.625-0.772,1.182-1.378,1.671
		c-0.607,0.486-1.365,0.883-2.275,1.187c-0.91,0.303-1.953,0.455-3.129,0.455c-0.992,0-1.861-0.11-2.605-0.331
		c-0.744-0.22-1.364-0.514-1.86-0.882c-0.496-0.367-0.864-0.785-1.103-1.254c-0.239-0.469-0.359-0.961-0.359-1.475
		c0-0.497,0.152-1.062,0.455-1.695c0.304-0.635,0.859-1.19,1.668-1.669c0.423-0.257,0.878-0.464,1.365-0.62
		c0.486-0.156,0.969-0.28,1.447-0.372c0.478-0.092,0.928-0.156,1.352-0.192c0.422-0.037,0.789-0.064,1.102-0.083
		c-0.202-0.257-0.391-0.528-0.564-0.813c-0.176-0.285-0.262-0.639-0.262-1.062c0-0.238,0.027-0.437,0.082-0.592
		c0.055-0.157,0.119-0.317,0.193-0.483c-0.147,0.019-0.295,0.032-0.441,0.042c-0.147,0.009-0.295,0.014-0.441,0.014
		c-0.734,0-1.388-0.124-1.957-0.372c-0.57-0.248-1.048-0.574-1.434-0.979c-0.386-0.403-0.68-0.868-0.882-1.392
		c-0.202-0.524-0.304-1.052-0.304-1.586c0-0.643,0.146-1.29,0.441-1.943c0.294-0.651,0.734-1.235,1.323-1.75
		c0.79-0.643,1.622-1.057,2.495-1.241c0.872-0.184,1.686-0.276,2.439-0.276h5.68l-1.766,0.965H129.506z M130.554,92.866
		c0-0.35-0.061-0.666-0.18-0.951c-0.12-0.285-0.299-0.565-0.538-0.841c-0.239-0.276-0.552-0.561-0.937-0.854
		c-0.387-0.294-0.837-0.625-1.352-0.992c-0.11-0.019-0.207-0.028-0.289-0.028c-0.083,0-0.198,0-0.345,0
		c-0.056,0-0.185,0.004-0.386,0.015c-0.203,0.009-0.441,0.027-0.717,0.055c-0.276,0.027-0.57,0.073-0.883,0.138
		s-0.615,0.143-0.909,0.234c-0.147,0.055-0.354,0.143-0.62,0.262c-0.268,0.119-0.529,0.29-0.787,0.51
		c-0.257,0.221-0.481,0.496-0.675,0.827c-0.192,0.331-0.29,0.744-0.29,1.241c0,0.992,0.438,1.801,1.311,2.426
		c0.873,0.624,2.054,0.938,3.542,0.938c1.323,0,2.33-0.281,3.019-0.841C130.208,94.442,130.554,93.729,130.554,92.866z
		 M126.473,84.76c0.349,0,0.694-0.073,1.034-0.221s0.62-0.332,0.84-0.554c0.313-0.313,0.506-0.664,0.58-1.051
		c0.072-0.388,0.11-0.71,0.11-0.969c0-0.498-0.074-1.042-0.222-1.633c-0.146-0.59-0.367-1.143-0.661-1.659s-0.657-0.945-1.089-1.286
		c-0.432-0.342-0.934-0.512-1.502-0.512c-0.369,0-0.727,0.083-1.076,0.249s-0.633,0.387-0.854,0.663
		c-0.239,0.296-0.399,0.618-0.481,0.969c-0.083,0.351-0.125,0.71-0.125,1.079c0,0.461,0.069,0.978,0.207,1.549
		c0.138,0.572,0.35,1.107,0.634,1.605c0.285,0.497,0.644,0.917,1.075,1.259C125.375,84.59,125.884,84.76,126.473,84.76z"/>
	<path fill="#FFFFFF" d="M143.416,81.088h-3.898v3.919h-1.238v-3.919h-3.918v-1.237h3.918v-3.857h1.238v3.857h3.898V81.088z"/>
	<path opacity="0.05" d="M151.757,73.185l-18.62-10.75c-0.493-0.284-1.055-0.436-1.625-0.436v49.5c0.569,0,1.132-0.15,1.625-0.436
		l18.62-10.75c1.002-0.578,1.625-1.656,1.625-2.814V76C153.382,74.842,152.759,73.764,151.757,73.185z"/>
</g>
<g id="Flickr">
	<g>
		<path fill="#FFFFFF" d="M205.757,70.587l-18.62-10.75c-1.934-1.116-4.316-1.116-6.25,0l-18.619,10.75
			c-1.935,1.116-3.125,3.18-3.125,5.412v21.5c0,2.233,1.19,4.297,3.125,5.413l18.619,10.75c0.967,0.558,2.046,0.837,3.125,0.837
			s2.158-0.279,3.125-0.837l18.62-10.75c1.934-1.116,3.125-3.18,3.125-5.413V76C208.882,73.767,207.691,71.704,205.757,70.587z"/>
		<path opacity="0.02" d="M204.257,73.185l-18.62-10.75c-0.493-0.284-1.055-0.436-1.625-0.436v49.5c0.569,0,1.132-0.15,1.625-0.436
			l18.62-10.75c1.002-0.578,1.625-1.656,1.625-2.814V76C205.882,74.842,205.259,73.764,204.257,73.185z"/>
		<circle fill="#EC0F80" cx="190.753" cy="86.394" r="5.395"/>
		<circle fill="#1C84C4" cx="177.218" cy="86.394" r="5.395"/>
	</g>
</g>
<g id="Vimeo">
	<g>
		<path fill="#24B4E8" d="M259.257,70.587l-18.62-10.75c-1.934-1.116-4.316-1.116-6.25,0l-18.619,10.75
			c-1.935,1.116-3.125,3.18-3.125,5.412v21.5c0,2.233,1.19,4.297,3.125,5.413l18.619,10.75c0.967,0.558,2.046,0.837,3.125,0.837
			s2.158-0.279,3.125-0.837l18.62-10.75c1.934-1.116,3.125-3.18,3.125-5.413V76C262.382,73.767,261.191,71.704,259.257,70.587z"/>
		<path id="_x3C_Path_x3E__6_" fill="#FFFFFF" d="M249.542,80.81c-0.106,2.341-1.745,5.543-4.909,9.604
			c-3.275,4.249-6.046,6.369-8.313,6.369c-1.403,0-2.591-1.291-3.561-3.882c-0.648-2.376-1.297-4.753-1.944-7.124
			c-0.72-2.592-1.493-3.887-2.321-3.887c-0.18,0-0.809,0.378-1.889,1.134l-1.133-1.459c1.188-1.04,2.356-2.086,3.51-3.127
			c1.581-1.369,2.769-2.086,3.561-2.161c1.869-0.181,3.022,1.098,3.455,3.83c0.465,2.952,0.791,4.788,0.971,5.508
			c0.539,2.446,1.133,3.667,1.781,3.667c0.502,0,1.554-0.492,2.563-2.073c1.008-1.585,1.614-3.005,1.688-3.834
			c0.145-1.366-0.762-2.13-1.984-2.13c-0.575,0-1.17,0.122-1.781,0.378c1.188-3.852,3.455-5.722,6.801-5.613
			C248.517,76.08,249.685,77.683,249.542,80.81z"/>
		<path opacity="0.02" d="M257.757,73.185l-18.62-10.75c-0.493-0.284-1.055-0.436-1.625-0.436v49.5c0.569,0,1.132-0.15,1.625-0.436
			l18.62-10.75c1.002-0.578,1.625-1.656,1.625-2.814V76C259.382,74.842,258.759,73.764,257.757,73.185z"/>
	</g>
</g>
<g id="Behance">
	<g>
		<path fill="#4371B7" d="M46.614,129.587l-18.62-10.75c-1.934-1.116-4.316-1.116-6.25,0l-18.62,10.75
			C1.191,130.704,0,132.767,0,135v21.5c0,2.233,1.191,4.297,3.125,5.413l18.62,10.75c0.967,0.558,2.046,0.837,3.125,0.837
			s2.158-0.279,3.125-0.837l18.62-10.75c1.934-1.116,3.125-3.18,3.125-5.413V135C49.739,132.767,48.548,130.704,46.614,129.587z"/>
		<g>
			<path fill="#FFFFFF" d="M22.474,145.085c0,0,2.351-0.175,2.351-2.932s-1.923-4.103-4.359-4.103H15.98h-0.131h-3.401v15.407h3.401
				h0.131h4.485c0,0,4.894,0.154,4.894-4.548C25.359,148.911,25.573,145.085,22.474,145.085z M15.98,140.79h3.908h0.577
				c0,0,1.09,0,1.09,1.603c0,1.604-0.642,1.836-1.368,1.836H15.98V140.79z M20.239,150.72c-0.119,0.003-0.22,0-0.287,0H15.98v-4.117
				h4.485c0,0,1.624-0.021,1.624,2.115C22.089,150.521,20.876,150.707,20.239,150.72z"/>
			<path fill="#FFFFFF" d="M34.18,143.013c0.781,0.322,1.428,0.831,1.936,1.524c0.459,0.613,0.759,1.323,0.894,2.131
				c0.079,0.474,0.253,1.357,0.239,2.248l-8.449-0.021c0.047,1.035,0.579,1.576,1.314,1.992c0.446,0.258,0.988,0.387,1.616,0.387
				c0.668,0,1.211-0.156,1.627-0.471c0.229-0.171,0.491-0.286,0.665-0.587h3.195c-0.079,0.609-0.706,1.108-1.35,1.739
				c-1.005,1.001-2.41,1.502-4.218,1.502c-1.492,0-2.808-0.421-3.948-1.269c-1.14-0.843-1.71-2.219-1.71-4.124
				c0-1.785,0.513-3.153,1.542-4.106c1.029-0.951,2.366-1.429,4.009-1.429C32.52,142.531,33.399,142.692,34.18,143.013z
				 M29.795,145.342c-0.413,0.391-0.673,0.924-0.782,1.594h5.051c-0.054-0.714-0.314-1.258-0.78-1.629
				c-0.467-0.369-1.047-0.555-1.74-0.555C30.792,144.752,30.21,144.949,29.795,145.342z"/>
			<path fill="#FFFFFF" d="M34.672,140.828l-6.516,0.017l-0.041-1.541l6.557,0.016V140.828z"/>
		</g>
		<path opacity="0.05" d="M45.115,132.185l-18.62-10.75C26.001,121.151,25.439,121,24.87,121v49.5c0.569,0,1.132-0.15,1.625-0.436
			l18.62-10.75c1.002-0.578,1.625-1.656,1.625-2.814V135C46.739,133.842,46.117,132.764,45.115,132.185z"/>
	</g>
</g>
<g id="Youtube">
	<g>
		<path fill="#EC2928" d="M99.757,130.087l-18.62-10.75c-1.934-1.116-4.316-1.116-6.25,0l-18.619,10.75
			c-1.934,1.116-3.125,3.18-3.125,5.412V157c0,2.233,1.191,4.297,3.125,5.413l18.619,10.75c0.967,0.558,2.046,0.837,3.125,0.837
			s2.158-0.279,3.125-0.837l18.62-10.75c1.934-1.116,3.125-3.18,3.125-5.413v-21.5C102.882,133.267,101.691,131.204,99.757,130.087z
			"/>
		<g>
			<path fill="#FFFFFF" d="M85.846,145.002H70.233c-2.054,0-3.718,1.83-3.718,4.088v1.479v3.554v0.335
				c0,2.258,1.665,4.088,3.718,4.088h0.492h14.629h0.492c2.054,0,3.719-1.83,3.719-4.088v-0.335v-3.554v-1.479
				C89.565,146.833,87.9,145.002,85.846,145.002z M73.336,148.876h-1.527v7.588h-1.475v-7.588h-1.527v-1.291h4.529V148.876z
				 M77.65,156.464h-1.31v-0.718c-0.243,0.265-0.493,0.468-0.755,0.605c-0.261,0.142-0.514,0.208-0.761,0.208
				c-0.303,0-0.529-0.096-0.684-0.292c-0.152-0.195-0.23-0.486-0.23-0.878v-5.478h1.31v5.025c0,0.155,0.028,0.268,0.081,0.336
				c0.057,0.071,0.147,0.104,0.27,0.104c0.094,0,0.217-0.046,0.365-0.137c0.148-0.093,0.283-0.21,0.406-0.353v-4.977h1.31V156.464z
				 M82.401,155.112c0,0.463-0.103,0.818-0.308,1.066c-0.204,0.247-0.502,0.37-0.89,0.37c-0.257,0-0.486-0.046-0.686-0.142
				c-0.2-0.096-0.388-0.242-0.56-0.445v0.503h-1.324v-8.879h1.324v2.859c0.177-0.198,0.366-0.352,0.561-0.454
				c0.201-0.105,0.402-0.156,0.605-0.156c0.414,0,0.73,0.138,0.948,0.418c0.22,0.278,0.329,0.688,0.329,1.225V155.112z
				 M86.941,153.346h-2.504v1.234c0,0.345,0.042,0.584,0.128,0.718s0.235,0.199,0.443,0.199c0.218,0,0.369-0.057,0.456-0.169
				c0.085-0.114,0.13-0.362,0.13-0.748v-0.299h1.347v0.336c0,0.673-0.163,1.178-0.494,1.52c-0.326,0.338-0.816,0.507-1.469,0.507
				c-0.586,0-1.05-0.18-1.386-0.54c-0.336-0.357-0.506-0.854-0.506-1.486v-2.942c0-0.565,0.186-1.031,0.557-1.389
				c0.371-0.357,0.846-0.535,1.433-0.535c0.6,0,1.06,0.164,1.382,0.496c0.322,0.332,0.483,0.808,0.483,1.428V153.346z"/>
			<path fill="#FFFFFF" d="M85.021,150.897c-0.209,0-0.357,0.06-0.448,0.181c-0.093,0.115-0.136,0.313-0.136,0.588v0.661h1.157
				v-0.661c0-0.275-0.047-0.473-0.138-0.588C85.368,150.957,85.22,150.897,85.021,150.897z"/>
			<path fill="#FFFFFF" d="M80.506,150.875c-0.093,0-0.187,0.021-0.278,0.063c-0.091,0.042-0.181,0.11-0.27,0.2v4.081
				c0.106,0.105,0.21,0.188,0.311,0.233c0.102,0.045,0.205,0.07,0.316,0.07c0.161,0,0.278-0.046,0.354-0.14
				c0.074-0.093,0.113-0.242,0.113-0.451v-3.384c0-0.223-0.045-0.389-0.137-0.504C80.818,150.931,80.682,150.875,80.506,150.875z"/>
			<polygon fill="#FFFFFF" points="72.271,143.672 73.93,143.672 73.93,139.614 75.862,133.889 74.176,133.889 73.149,137.799 
				73.044,137.799 71.966,133.889 70.295,133.889 72.271,139.796 			"/>
			<path fill="#FFFFFF" d="M78.11,143.854c0.67,0,1.196-0.176,1.579-0.527c0.38-0.354,0.571-0.834,0.571-1.451v-3.729
				c0-0.55-0.194-1.002-0.582-1.351c-0.391-0.348-0.891-0.523-1.501-0.523c-0.67,0-1.204,0.166-1.601,0.497
				c-0.396,0.331-0.595,0.774-0.595,1.335v3.741c0,0.613,0.194,1.1,0.58,1.463C76.949,143.672,77.466,143.854,78.11,143.854z
				 M77.499,138.051c0-0.157,0.056-0.284,0.167-0.384c0.114-0.097,0.26-0.145,0.439-0.145c0.195,0,0.353,0.048,0.474,0.145
				c0.119,0.1,0.179,0.227,0.179,0.384v3.931c0,0.192-0.059,0.346-0.177,0.457c-0.118,0.109-0.276,0.164-0.476,0.164
				c-0.194,0-0.345-0.052-0.45-0.162c-0.104-0.109-0.157-0.262-0.157-0.459V138.051z"/>
			<path fill="#FFFFFF" d="M82.485,143.777c0.277,0,0.562-0.078,0.854-0.23c0.295-0.154,0.579-0.38,0.849-0.674v0.8h1.474v-7.217
				h-1.474v5.478c-0.137,0.157-0.289,0.286-0.454,0.388c-0.167,0.102-0.304,0.152-0.412,0.152c-0.138,0-0.24-0.037-0.3-0.116
				c-0.061-0.075-0.095-0.199-0.095-0.369v-5.532h-1.472v6.032c0,0.429,0.087,0.751,0.258,0.964
				C81.888,143.667,82.143,143.777,82.485,143.777z"/>
		</g>
		<path opacity="0.05" d="M98.257,132.685l-18.62-10.75c-0.493-0.284-1.055-0.436-1.625-0.436V171c0.569,0,1.132-0.15,1.625-0.436
			l18.62-10.75c1.002-0.578,1.625-1.656,1.625-2.814v-21.5C99.882,134.342,99.259,133.264,98.257,132.685z"/>
	</g>
</g>
<g id="Tumblr">
	<g>
		<path fill="#3A5A76" d="M153.224,129.833l-18.62-10.75c-1.934-1.116-4.316-1.116-6.25,0l-18.619,10.75
			c-1.934,1.116-3.125,3.18-3.125,5.412v21.5c0,2.233,1.191,4.297,3.125,5.413l18.619,10.75c0.967,0.558,2.046,0.837,3.125,0.837
			s2.158-0.279,3.125-0.837l18.62-10.75c1.934-1.116,3.125-3.18,3.125-5.413v-21.5C156.349,133.012,155.158,130.949,153.224,129.833
			z"/>
		<path id="_x3C_Path_x3E__8_" fill="#FFFFFF" d="M132.55,133.859v5.69h5.689v4.394h-5.689v6.31c0,1.428-0.018,2.251,0.133,2.655
			c0.15,0.402,0.527,0.82,0.938,1.062c0.545,0.327,1.166,0.49,1.867,0.49c1.246,0,2.485-0.404,3.718-1.214v3.88
			c-1.05,0.495-2.003,0.844-2.856,1.042c-0.853,0.198-1.773,0.3-2.765,0.3c-1.125,0-1.789-0.143-2.653-0.425
			c-0.864-0.286-1.602-0.692-2.211-1.215c-0.613-0.526-1.034-1.086-1.27-1.678c-0.236-0.593-0.355-1.452-0.355-2.577v-8.63h-3.342
			v-3.485c0.966-0.313,2.086-0.764,2.774-1.35c0.69-0.588,1.244-1.291,1.66-2.113c0.419-0.82,0.706-1.867,0.862-3.136H132.55z"/>
		<path opacity="0.05" d="M151.724,132.43l-18.62-10.75c-0.493-0.284-1.055-0.436-1.625-0.436v49.5c0.569,0,1.132-0.15,1.625-0.436
			l18.62-10.75c1.002-0.578,1.625-1.656,1.625-2.814v-21.5C153.349,134.087,152.726,133.009,151.724,132.43z"/>
	</g>
</g>
<g id="Forrst">
	<g>
		<path fill="#548F5F" d="M205.757,129.833l-18.62-10.75c-1.934-1.116-4.316-1.116-6.25,0l-18.619,10.75
			c-1.935,1.116-3.125,3.18-3.125,5.412v21.5c0,2.233,1.19,4.297,3.125,5.413l18.619,10.75c0.967,0.558,2.046,0.837,3.125,0.837
			s2.158-0.279,3.125-0.837l18.62-10.75c1.934-1.116,3.125-3.18,3.125-5.413v-21.5C208.882,133.012,207.691,130.949,205.757,129.833
			z"/>
		<path id="_x3C_Path_x3E__2_" fill="#FFFFFF" d="M184.012,131.244l-10.963,25.963h8.763v3.875h4.438v-3.875h8.726L184.012,131.244z
			 M185.203,160.019h-2.346v-2.813v-2.063v-3.427l-2.443-1.651l0.408-0.53l2.035,1.375v-0.258v-3.822h2.346v2.634l2.115-1.07
			l0.326,0.643l-2.441,1.236v1.845l3.855-1.953l0.367,0.726l-4.223,2.139v2.115v2.063V160.019z"/>
		<path opacity="0.05" d="M204.257,132.43l-18.62-10.75c-0.493-0.284-1.055-0.436-1.625-0.436v49.5c0.569,0,1.132-0.15,1.625-0.436
			l18.62-10.75c1.002-0.578,1.625-1.656,1.625-2.814v-21.5C205.882,134.087,205.259,133.009,204.257,132.43z"/>
	</g>
</g>
<g id="Wordpress">
	<g>
		<path fill="#8D8D8D" d="M258.953,129.771l-18.621-10.75c-1.934-1.116-4.316-1.116-6.25,0l-18.619,10.75
			c-1.934,1.116-3.125,3.18-3.125,5.413v21.5c0,2.232,1.191,4.296,3.125,5.412l18.619,10.75c0.967,0.559,2.047,0.838,3.125,0.838
			c1.08,0,2.158-0.279,3.125-0.838l18.621-10.75c1.934-1.116,3.125-3.18,3.125-5.412v-21.5
			C262.078,132.951,260.886,130.887,258.953,129.771z"/>
		<path id="_x3C_Path_x3E__4_" fill="#FFFFFF" d="M223.646,145.834c0,5.415,3.148,10.1,7.715,12.315l-6.529-17.888
			C224.072,141.966,223.646,143.848,223.646,145.834z M246.572,145.143c0-1.691-0.608-2.864-1.129-3.775
			c-0.693-1.128-1.342-2.081-1.342-3.21c0-1.259,0.951-2.429,2.299-2.429c0.058,0,0.117,0.008,0.176,0.012
			c-2.436-2.23-5.68-3.595-9.242-3.595c-4.783,0-8.988,2.455-11.436,6.17c0.322,0.01,0.624,0.018,0.881,0.018
			c1.432,0,3.648-0.176,3.648-0.176c0.736-0.041,0.823,1.04,0.086,1.129c0,0-0.741,0.086-1.566,0.13l4.984,14.823l2.996-8.981
			l-2.134-5.842c-0.737-0.044-1.435-0.13-1.435-0.13c-0.738-0.045-0.651-1.17,0.087-1.129c0,0,2.259,0.176,3.604,0.176
			c1.43,0,3.648-0.176,3.648-0.176c0.736-0.041,0.823,1.04,0.086,1.129c0,0-0.74,0.086-1.566,0.13l4.947,14.711l1.365-4.56
			C246.224,147.789,246.572,146.315,246.572,145.143z M237.574,147.032l-4.107,11.934c1.227,0.36,2.521,0.556,3.867,0.556
			c1.593,0,3.123-0.276,4.545-0.777c-0.037-0.059-0.07-0.119-0.098-0.187L237.574,147.032z M249.341,139.266
			c0.062,0.438,0.096,0.904,0.096,1.409c0,1.388-0.262,2.948-1.043,4.901l-4.18,12.086c4.068-2.371,6.804-6.779,6.804-11.828
			C251.018,143.454,250.411,141.217,249.341,139.266z"/>
		<path opacity="0.05" d="M257.453,132.37l-18.621-10.75c-0.492-0.285-1.055-0.436-1.625-0.436v49.5c0.57,0,1.133-0.15,1.625-0.436
			l18.621-10.75c1.002-0.579,1.625-1.657,1.625-2.814v-21.5C259.078,134.026,258.455,132.948,257.453,132.37z"/>
	</g>
</g>
</svg>
